<?xml version="1.0" standalone="no"?>
<!DOCTYPE svg PUBLIC "-//W3C//DTD SVG 20010904//EN"
 "http://www.w3.org/TR/2001/REC-SVG-20010904/DTD/svg10.dtd">
<svg version="1.0" xmlns="http://www.w3.org/2000/svg"
 width="30.000000pt" height="30.000000pt" viewBox="0 0 30.000000 30.000000"
 preserveAspectRatio="xMidYMid meet">
<metadata>
Created by potrace 1.13, written by Peter Selinger 2001-2015
</metadata>
<g transform="translate(0.000000,30.000000) scale(0.100000,-0.100000)"
fill="#000000" stroke="none">
<path d="M96 269 c-20 -16 -26 -29 -26 -59 0 -33 -3 -37 -20 -33 -26 7 -26
-13 0 -27 16 -9 18 -15 10 -30 -6 -11 -23 -26 -38 -34 -25 -14 -26 -15 -7 -22
11 -4 23 -13 28 -20 4 -7 14 -11 22 -7 8 3 26 -2 40 -11 13 -9 34 -16 45 -16
11 0 32 7 45 16 14 9 32 14 40 10 9 -3 18 1 21 8 3 8 15 17 27 20 21 6 21 7
-5 21 -15 9 -32 24 -38 35 -8 15 -6 21 10 30 26 14 26 34 0 27 -17 -4 -20 0
-20 33 0 70 -77 104 -134 59z"/>
</g>
</svg>
