<?xml version="1.0" encoding="utf-8"?>
<!-- Generator: Adobe Illustrator 20.0.0, SVG Export Plug-In . SVG Version: 6.00 Build 0)  -->
<svg version="1.1" xmlns="http://www.w3.org/2000/svg" xmlns:xlink="http://www.w3.org/1999/xlink" x="0px" y="0px"
	 viewBox="0 0 40 40" style="enable-background:new 0 0 40 40;" xml:space="preserve">
<g id="Spyglass__x28_thinner_x29_">
</g>
<g id="Spyglass__x28_thicker_x29_">
</g>
<g id="Bag">
</g>
<g id="bag_filled">
</g>
<g id="Cross">
</g>
<g id="Pin">
</g>
<g id="Sign_In">
</g>
<g id="Wishlist_filled">
</g>
<g id="Sign_In_filled">
	<g id="XMLID_650_">
		<path id="XMLID_653_" d="M1,39c0,0,0-0.1,0-0.1c0-9.3,5.3-17.5,13.2-20.4l1.5-0.6l-1.2-1.1c-1.8-1.7-2.9-4.2-2.9-6.8
			c0-5,3.7-9,8.3-9c4.6,0,8.3,4,8.3,9c0,2.6-1.1,5.1-2.9,6.8l-1.2,1.1l1.5,0.6C33.7,21.3,39,29.5,39,38.9c0,0,0,0.1,0,0.1H1z"/>
		<path id="XMLID_133_" d="M20,2c4.1,0,7.3,3.6,7.3,8c0,2.3-0.9,4.5-2.6,6.1l-2.4,2.2l3.1,1.1C32.7,22,37.7,29.4,38,38H2
			c0.3-8.6,5.3-16,12.5-18.6l3.1-1.1l-2.4-2.2c-1.6-1.5-2.6-3.7-2.6-6.1C12.7,5.6,15.9,2,20,2 M20,0c-5.2,0-9.3,4.5-9.3,10
			c0,3,1.2,5.7,3.2,7.5C5.8,20.4,0,28.9,0,38.9c0,0.4,0,0.8,0,1.1v0H40c0-0.4,0-0.8,0-1.1c0-10-5.8-18.4-13.9-21.3
			c2-1.8,3.2-4.5,3.2-7.5C29.3,4.5,25.2,0,20,0L20,0z"/>
	</g>
</g>
<g id="Wishlist">
</g>
<g id="Live_Chat">
</g>
<g id="Help">
</g>
<g id="Hamburger">
</g>
<g id="Hamburger_Cross">
</g>
</svg>
