<?xml version="1.0" encoding="utf-8"?>
<!-- Generator: Adobe Illustrator 20.0.0, SVG Export Plug-In . SVG Version: 6.00 Build 0)  -->
<svg version="1.1" xmlns="http://www.w3.org/2000/svg" xmlns:xlink="http://www.w3.org/1999/xlink" x="0px" y="0px"
	 viewBox="0 0 39 36" style="enable-background:new 0 0 39 36;" xml:space="preserve">
<g id="Spyglass__x28_thinner_x29_">
</g>
<g id="Spyglass__x28_thicker_x29_">
</g>
<g id="Bag">
</g>
<g id="bag_filled">
</g>
<g id="Cross">
</g>
<g id="Pin">
</g>
<g id="Map_26px">
</g>
<g id="Sign_In">
</g>
<g id="Wishlist_filled">
</g>
<g id="Sign_In_filled">
</g>
<g id="Wishlist">
	<g>
		<path d="M10.7,3.1c2.2,0,4.2,0.9,5.7,2.5l1,1.1l2,2.2l2-2.1l1.1-1.1c1.5-1.6,3.5-2.4,5.7-2.4c2,0,3.9,0.8,5.4,2.2
			c3.1,3,3.3,8,0.3,11.1L19.4,31.7L5,16.3c-3-3.2-2.8-8.1,0.4-11.1C6.8,3.8,8.7,3.1,10.7,3.1 M10.7,0.3c-2.6,0-5.2,1-7.3,2.9
			c-4.3,4-4.5,10.8-0.5,15l16.4,17.5L36,18.3c4.1-4.3,3.9-11-0.4-15.1c-2.1-2-4.7-2.9-7.3-2.9c0,0,0,0,0,0c-2.8,0-5.6,1.1-7.7,3.3
			l-1.1,1.1l-1-1.1C16.4,1.4,13.6,0.3,10.7,0.3L10.7,0.3z"/>
	</g>
</g>
<g id="Live_Chat">
</g>
<g id="Help">
</g>
<g id="Hamburger">
</g>
<g id="Hamburger_Cross">
</g>
<g id="left_arrow">
</g>
<g id="right_x5F_arrow">
</g>
<g id="down_x5F_arrow">
</g>
<g id="up_x5F_arrow">
</g>
</svg>
