<?xml version="1.0" encoding="utf-8"?>
<!-- Generator: Adobe Illustrator 20.0.0, SVG Export Plug-In . SVG Version: 6.00 Build 0)  -->
<svg version="1.1" xmlns="http://www.w3.org/2000/svg" xmlns:xlink="http://www.w3.org/1999/xlink" x="0px" y="0px"
	 viewBox="0 0 24.7 36" style="enable-background:new 0 0 24.7 36;" xml:space="preserve">
<g id="Spyglass__x28_thinner_x29_">
</g>
<g id="Spyglass__x28_thicker_x29_">
</g>
<g id="Bag">
</g>
<g id="bag_filled">
</g>
<g id="Cross">
</g>
<g id="Pin">
	<g>
		<path d="M12.3,0.2C5.7,0.2,0.3,5.6,0.3,12.3s12.1,23.5,12.1,23.5s12.1-16.8,12.1-23.5S19,0.2,12.3,0.2z M12.3,31
			C5.6,21,3,14.3,3,12.3c0-5.1,4.2-9.3,9.3-9.3c5.1,0,9.3,4.2,9.3,9.3C21.7,15.8,16.6,24.6,12.3,31z"/>
		<path d="M12.3,8.6C10,8.6,8,10.5,8,12.9c0,2.4,1.9,4.3,4.3,4.3c2.4,0,4.3-1.9,4.3-4.3C16.7,10.5,14.7,8.6,12.3,8.6z M12.3,15.9
			c-1.6,0-3-1.3-3-3s1.3-3,3-3s3,1.3,3,3S14,15.9,12.3,15.9z"/>
	</g>
</g>
<g id="Map_26px">
</g>
<g id="Sign_In">
</g>
<g id="Wishlist_filled">
</g>
<g id="Sign_In_filled">
</g>
<g id="Wishlist">
</g>
<g id="Live_Chat">
</g>
<g id="Help">
</g>
<g id="Hamburger">
</g>
<g id="Hamburger_Cross">
</g>
<g id="left_arrow">
</g>
<g id="right_x5F_arrow">
</g>
<g id="down_x5F_arrow">
</g>
<g id="up_x5F_arrow">
</g>
</svg>
