<?xml version="1.0" encoding="utf-8"?>
<!-- Generator: Adobe Illustrator 20.0.0, SVG Export Plug-In . SVG Version: 6.00 Build 0)  -->
<svg version="1.1" xmlns="http://www.w3.org/2000/svg" xmlns:xlink="http://www.w3.org/1999/xlink" x="0px" y="0px"
	 viewBox="0 0 36 36" style="enable-background:new 0 0 36 36;" xml:space="preserve">
<g id="Spyglass__x28_thinner_x29_">
	<path d="M13.3,3.1c5.7,0,10.4,4.6,10.4,10.3s-4.7,10.3-10.4,10.3S2.9,19,2.9,13.3S7.6,3.1,13.3,3.1 M13.3,0.4
		c-7.2,0-13.1,5.8-13.1,13s5.9,13,13.1,13s13.1-5.8,13.1-13S20.6,0.4,13.3,0.4L13.3,0.4z M34.8,34.7c0.3-0.3,0.4-0.9,0-1.2
		L23.1,21.3c-0.3-0.3-0.9-0.4-1.2,0c-0.3,0.3-0.4,0.9,0,1.2l11.7,12.2c0.2,0.2,0.4,0.3,0.6,0.3C34.4,35,34.6,34.9,34.8,34.7z
		 M22.5,21.1c0.2,0,0.5,0.1,0.6,0.3l11.7,12.2c0.3,0.3,0.3,0.9,0,1.2c-0.2,0.2-0.4,0.2-0.6,0.2c-0.2,0-0.5-0.1-0.6-0.3L21.9,22.5
		c-0.3-0.3-0.3-0.9,0-1.2C22.1,21.1,22.3,21.1,22.5,21.1 M22.5,20.4c-0.4,0-0.8,0.2-1.1,0.4c-0.3,0.3-0.5,0.7-0.5,1.1
		c0,0.4,0.1,0.8,0.4,1.1l11.7,12.2c0.3,0.3,0.7,0.5,1.1,0.5c0.4,0,0.8-0.2,1.1-0.4c0.3-0.3,0.5-0.7,0.5-1.1c0-0.4-0.1-0.8-0.4-1.1
		L23.6,20.9C23.3,20.6,22.9,20.4,22.5,20.4L22.5,20.4z"/>
</g>
<g id="Spyglass__x28_thicker_x29_">
</g>
<g id="Bag">
</g>
<g id="bag_filled">
</g>
<g id="Cross">
</g>
<g id="Pin">
</g>
<g id="Map_26px">
</g>
<g id="Sign_In">
</g>
<g id="Wishlist_filled">
</g>
<g id="Sign_In_filled">
</g>
<g id="Wishlist">
</g>
<g id="Live_Chat">
</g>
<g id="Help">
</g>
<g id="Hamburger">
</g>
<g id="Hamburger_Cross">
</g>
<g id="left_arrow">
</g>
<g id="right_x5F_arrow">
</g>
<g id="down_x5F_arrow">
</g>
<g id="up_x5F_arrow">
</g>
</svg>
