<?xml version="1.0" encoding="utf-8"?>
<!-- Generator: Adobe Illustrator 20.1.0, SVG Export Plug-In . SVG Version: 6.00 Build 0)  -->
<svg version="1.1" id="Layer_1" xmlns="http://www.w3.org/2000/svg" xmlns:xlink="http://www.w3.org/1999/xlink" x="0px" y="0px"
	 viewBox="0 0 36 36" style="enable-background:new 0 0 36 36;" xml:space="preserve">
<style type="text/css">
	.st0{display:none;}
	.st1{fill:#FFFFFF;}
</style>
<g id="Layer_1_1_">
	<g id="Spyglass__x28_thinner_x29_">
	</g>
	<g id="Spyglass__x28_thicker_x29_">
	</g>
	<g id="Bag">
	</g>
	<g id="bag_filled">
	</g>
	<g id="Cross">
	</g>
	<g id="Pin">
	</g>
	<g id="Map_26px">
	</g>
	<g id="Sign_In">
	</g>
	<g id="Wishlist_filled">
	</g>
	<g id="Sign_In_filled">
	</g>
	<g id="Wishlist">
	</g>
	<g id="Live_Chat">
	</g>
	<g id="Help">
		<path class="st0" d="M18,3c8.3,0,15.1,6.7,15.1,15S26.3,33,18,33S2.9,26.3,2.9,18S9.7,3,18,3"/>
	</g>
	<g id="Hamburger">
	</g>
	<g id="Hamburger_Cross">
	</g>
	<g id="left_arrow">
	</g>
	<g id="right_x5F_arrow">
	</g>
	<g id="down_x5F_arrow">
	</g>
	<g id="up_x5F_arrow">
	</g>
</g>
<g id="Layer_2">
	<path class="st1" d="M18,0.3C8.1,0.3,0.1,8.2,0.1,18s8,17.7,17.9,17.7S35.9,27.8,35.9,18S27.9,0.3,18,0.3z M19.1,25.4
		c-0.4,0.3-0.8,0.4-1.2,0.4c-0.5,0-0.8-0.1-1.2-0.4c-0.4-0.3-0.5-0.7-0.5-1.2s0.2-0.9,0.5-1.2s0.7-0.5,1.2-0.5s0.9,0.2,1.2,0.5
		c0.3,0.3,0.5,0.7,0.5,1.2S19.4,25.1,19.1,25.4z M23.1,15.1c-0.3,0.5-0.6,0.9-0.9,1.2c-0.4,0.3-1,0.9-1.9,1.7
		c-0.3,0.2-0.5,0.4-0.6,0.6c-0.2,0.2-0.3,0.3-0.3,0.5c-0.1,0.1-0.1,0.3-0.2,0.4c0,0.1-0.1,0.4-0.2,0.8c-0.1,0.8-0.6,1.2-1.3,1.2
		c-0.4,0-0.7-0.1-1-0.4s-0.4-0.6-0.4-1.1c0-0.6,0.1-1.2,0.3-1.6c0.2-0.5,0.4-0.9,0.8-1.2c0.3-0.3,0.7-0.8,1.3-1.2
		c0.5-0.4,0.8-0.7,1-0.9s0.4-0.4,0.5-0.7s0.2-0.5,0.2-0.8c0-0.6-0.2-1.1-0.7-1.5c-0.4-0.4-1-0.6-1.7-0.6c-0.8,0-1.4,0.2-1.8,0.6
		c-0.4,0.4-0.7,1-1,1.8s-0.7,1.2-1.4,1.2c-0.4,0-0.8-0.1-1.1-0.4s-0.3-0.7-0.3-1c0-0.7,0.2-1.4,0.7-2.1c0.5-0.7,1.1-1.3,2-1.8
		s1.9-0.7,3-0.7s2,0.2,2.8,0.6c0.8,0.4,1.5,0.9,1.9,1.6c0.4,0.7,0.7,1.4,0.7,2.2C23.5,14.1,23.4,14.7,23.1,15.1z"/>
</g>
<path d="M23.1,15.1c-0.3,0.5-0.6,0.9-0.9,1.2c-0.4,0.3-1,0.9-1.9,1.7c-0.3,0.2-0.5,0.4-0.6,0.6c-0.2,0.2-0.3,0.3-0.3,0.5
	c-0.1,0.1-0.1,0.3-0.2,0.4c0,0.1-0.1,0.4-0.2,0.8c-0.1,0.8-0.6,1.2-1.3,1.2c-0.4,0-0.7-0.1-1-0.4s-0.4-0.6-0.4-1.1
	c0-0.6,0.1-1.2,0.3-1.6c0.2-0.5,0.4-0.9,0.8-1.2c0.3-0.3,0.7-0.8,1.3-1.2c0.5-0.4,0.8-0.7,1-0.9s0.4-0.4,0.5-0.7s0.2-0.5,0.2-0.8
	c0-0.6-0.2-1.1-0.7-1.5c-0.4-0.4-1-0.6-1.7-0.6c-0.8,0-1.4,0.2-1.8,0.6c-0.4,0.4-0.7,1-1,1.8s-0.7,1.2-1.4,1.2
	c-0.4,0-0.8-0.1-1.1-0.4s-0.3-0.7-0.3-1c0-0.7,0.2-1.4,0.7-2.1c0.5-0.7,1.1-1.3,2-1.8s1.9-0.7,3-0.7s2,0.2,2.8,0.6
	c0.8,0.4,1.5,0.9,1.9,1.6c0.4,0.7,0.7,1.4,0.7,2.2C23.5,14.1,23.4,14.7,23.1,15.1z"/>
<path d="M19.1,25.4c-0.4,0.3-0.8,0.4-1.2,0.4c-0.5,0-0.8-0.1-1.2-0.4c-0.4-0.3-0.5-0.7-0.5-1.2s0.2-0.9,0.5-1.2s0.7-0.5,1.2-0.5
	s0.9,0.2,1.2,0.5c0.3,0.3,0.5,0.7,0.5,1.2S19.4,25.1,19.1,25.4z"/>
</svg>
