<?xml version="1.0" encoding="utf-8"?>
<!-- Generator: Adobe Illustrator 20.0.0, SVG Export Plug-In . SVG Version: 6.00 Build 0)  -->
<svg version="1.1" xmlns="http://www.w3.org/2000/svg" xmlns:xlink="http://www.w3.org/1999/xlink" x="0px" y="0px"
	 viewBox="0 0 39.9 36" style="enable-background:new 0 0 39.9 36;" xml:space="preserve">
<g id="Spyglass__x28_thinner_x29_">
</g>
<g id="Spyglass__x28_thicker_x29_">
</g>
<g id="Bag">
</g>
<g id="bag_filled">
</g>
<g id="Cross">
</g>
<g id="Pin">
</g>
<g id="Map_26px">
</g>
<g id="Sign_In">
</g>
<g id="Wishlist_filled">
</g>
<g id="Sign_In_filled">
</g>
<g id="Wishlist">
</g>
<g id="Live_Chat">
</g>
<g id="Help">
</g>
<g id="Hamburger">
	<path d="M37.8,3.8H2.1c-1,0-1.8-0.7-1.8-1.7s0.8-1.7,1.8-1.7h35.6c1,0,1.8,0.7,1.8,1.7S38.8,3.8,37.8,3.8z M39.6,18
		c0-0.9-0.8-1.7-1.8-1.7H2.1c-1,0-1.8,0.7-1.8,1.7s0.8,1.7,1.8,1.7h35.6C38.8,19.7,39.6,18.9,39.6,18z M39.6,33.9
		c0-0.9-0.8-1.7-1.8-1.7H2.1c-1,0-1.8,0.7-1.8,1.7s0.8,1.7,1.8,1.7h35.6C38.8,35.5,39.6,34.8,39.6,33.9z"/>
</g>
<g id="Hamburger_Cross">
</g>
<g id="left_arrow">
</g>
<g id="right_x5F_arrow">
</g>
<g id="down_x5F_arrow">
</g>
<g id="up_x5F_arrow">
</g>
</svg>
