<?xml version="1.0" encoding="utf-8"?>
<!-- Generator: Adobe Illustrator 20.0.0, SVG Export Plug-In . SVG Version: 6.00 Build 0)  -->
<svg version="1.1" xmlns="http://www.w3.org/2000/svg" xmlns:xlink="http://www.w3.org/1999/xlink" x="0px" y="0px"
	 viewBox="0 0 36 36" style="enable-background:new 0 0 36 36;" xml:space="preserve">
<g id="Spyglass__x28_thinner_x29_">
</g>
<g id="Spyglass__x28_thicker_x29_">
</g>
<g id="Bag">
</g>
<g id="bag_filled">
</g>
<g id="Cross">
</g>
<g id="Pin">
</g>
<g id="Map_26px">
</g>
<g id="Sign_In">
	<path d="M0.3,35.7l-0.1-1.2c0-0.3,0-0.7,0-1c0-7.9,4.2-14.9,10.6-18.1C9.7,13.8,9,11.8,9,9.7c0-5.2,4-9.5,9-9.5s9,4.3,9,9.5
		c0,2.1-0.6,4.1-1.8,5.7c6.4,3.1,10.6,10.2,10.6,18.1c0,0.3,0,0.7,0,1l-0.1,1.2L0.3,35.7z M18,2.8c-3.5,0-6.4,3.1-6.4,7
		c0,2,0.8,3.9,2.2,5.3l1.5,1.4l-1.9,0.7C7.1,19.4,2.9,25.8,2.8,33.2l30.4,0c-0.1-7.4-4.3-13.8-10.6-16.1l-1.9-0.7l1.5-1.4
		c1.4-1.3,2.2-3.3,2.2-5.3C24.4,5.9,21.5,2.8,18,2.8z"/>
</g>
<g id="Wishlist_filled">
</g>
<g id="Sign_In_filled">
</g>
<g id="Wishlist">
</g>
<g id="Live_Chat">
</g>
<g id="Help">
</g>
<g id="Hamburger">
</g>
<g id="Hamburger_Cross">
</g>
<g id="left_arrow">
</g>
<g id="right_x5F_arrow">
</g>
<g id="down_x5F_arrow">
</g>
<g id="up_x5F_arrow">
</g>
</svg>
